<mxfile host="app.diagrams.net" modified="2024-06-08T09:51:15.457Z" agent="Mozilla/5.0 (Windows NT 10.0; Win64; x64) AppleWebKit/537.36 (KHTML, like Gecko) Chrome/125.0.0.0 Safari/537.36" etag="v-W9x3MkuiOrEZHvf2Kw" version="24.5.2" type="github">
  <diagram name="Page-1" id="9nklb6ecl2WmSpWrXXRq">
    <mxGraphModel dx="1434" dy="772" grid="1" gridSize="10" guides="1" tooltips="1" connect="1" arrows="1" fold="1" page="1" pageScale="1" pageWidth="827" pageHeight="1169" math="0" shadow="0">
      <root>
        <mxCell id="0" />
        <mxCell id="1" parent="0" />
        <mxCell id="mQauN5IgEXGokqw0L47I-3" value="" style="edgeStyle=orthogonalEdgeStyle;rounded=0;orthogonalLoop=1;jettySize=auto;html=1;" edge="1" parent="1" source="mQauN5IgEXGokqw0L47I-1" target="mQauN5IgEXGokqw0L47I-2">
          <mxGeometry relative="1" as="geometry" />
        </mxCell>
        <mxCell id="mQauN5IgEXGokqw0L47I-1" value="Start" style="rounded=0;whiteSpace=wrap;html=1;" vertex="1" parent="1">
          <mxGeometry x="170" y="10" width="120" height="60" as="geometry" />
        </mxCell>
        <mxCell id="mQauN5IgEXGokqw0L47I-5" value="" style="edgeStyle=orthogonalEdgeStyle;rounded=0;orthogonalLoop=1;jettySize=auto;html=1;" edge="1" parent="1" source="mQauN5IgEXGokqw0L47I-2" target="mQauN5IgEXGokqw0L47I-4">
          <mxGeometry relative="1" as="geometry" />
        </mxCell>
        <mxCell id="mQauN5IgEXGokqw0L47I-2" value="User and computer should each get 2 random cards." style="rounded=0;whiteSpace=wrap;html=1;" vertex="1" parent="1">
          <mxGeometry x="170" y="130" width="120" height="60" as="geometry" />
        </mxCell>
        <mxCell id="mQauN5IgEXGokqw0L47I-9" value="" style="edgeStyle=orthogonalEdgeStyle;rounded=0;orthogonalLoop=1;jettySize=auto;html=1;" edge="1" parent="1" source="mQauN5IgEXGokqw0L47I-4" target="mQauN5IgEXGokqw0L47I-8">
          <mxGeometry relative="1" as="geometry" />
        </mxCell>
        <mxCell id="mQauN5IgEXGokqw0L47I-4" value="Add up the user&#39;s and the computer&#39;s scores" style="rounded=0;whiteSpace=wrap;html=1;" vertex="1" parent="1">
          <mxGeometry x="170" y="270" width="120" height="60" as="geometry" />
        </mxCell>
        <mxCell id="mQauN5IgEXGokqw0L47I-8" value="" style="rhombus;whiteSpace=wrap;html=1;rounded=0;" vertex="1" parent="1">
          <mxGeometry x="150" y="400" width="160" height="100" as="geometry" />
        </mxCell>
      </root>
    </mxGraphModel>
  </diagram>
</mxfile>
